<mxfile host="app.diagrams.net" agent="Mozilla/5.0 (Windows NT 10.0; Win64; x64) AppleWebKit/537.36 (KHTML, like Gecko) Chrome/130.0.0.0 Safari/537.36 Edg/130.0.0.0" version="26.0.4">
  <diagram name="Page-1" id="c4acf3e9-155e-7222-9cf6-157b1a14988f">
    <mxGraphModel dx="2066" dy="1117" grid="1" gridSize="10" guides="1" tooltips="1" connect="1" arrows="1" fold="1" page="1" pageScale="1" pageWidth="1169" pageHeight="827" background="none" math="0" shadow="0">
      <root>
        <mxCell id="0" />
        <mxCell id="1" parent="0" />
        <mxCell id="17acba5748e5396b-1" value="WEB-ларёк" style="shape=umlFrame;whiteSpace=wrap;html=1;rounded=0;shadow=0;comic=0;labelBackgroundColor=none;strokeWidth=1;fontFamily=Verdana;fontSize=10;align=center;width=100;height=20;" parent="1" vertex="1">
          <mxGeometry x="20" y="40" width="1620" height="1140" as="geometry" />
        </mxCell>
        <mxCell id="s7E4I5nIOTm-5PLSeBIP-10" value="&lt;b&gt;&lt;font style=&quot;font-size: 12px;&quot;&gt;EventEmitter&lt;/font&gt;&lt;/b&gt;" style="swimlane;html=1;fontStyle=0;childLayout=stackLayout;horizontal=1;startSize=30;fillColor=none;horizontalStack=0;resizeParent=1;resizeLast=0;collapsible=1;marginBottom=0;swimlaneFillColor=#ffffff;rounded=0;shadow=0;comic=0;labelBackgroundColor=none;strokeWidth=1;fontFamily=Verdana;fontSize=10;align=center;" parent="1" vertex="1">
          <mxGeometry x="640" y="482" width="379" height="186" as="geometry" />
        </mxCell>
        <mxCell id="s7E4I5nIOTm-5PLSeBIP-11" value="- events: Map&amp;lt;EventName, Subscriber [ ]&amp;gt;&lt;div&gt;&lt;br&gt;&lt;/div&gt;" style="text;html=1;strokeColor=default;fillColor=none;align=left;verticalAlign=top;spacingLeft=4;spacingRight=4;whiteSpace=wrap;overflow=hidden;rotatable=0;points=[[0,0.5],[1,0.5]];portConstraint=eastwest;" parent="s7E4I5nIOTm-5PLSeBIP-10" vertex="1">
          <mxGeometry y="30" width="379" height="26" as="geometry" />
        </mxCell>
        <mxCell id="s7E4I5nIOTm-5PLSeBIP-13" value="&lt;div&gt;+ EventEmitter()&lt;/div&gt;&lt;div&gt;&lt;br&gt;&lt;/div&gt;&lt;div&gt;+ on(eventName: EventName, callback: (event: T) =&amp;gt; void): void&lt;div&gt;+ off(eventName: EventName, callback:&amp;nbsp;&lt;span style=&quot;background-color: transparent; color: light-dark(rgb(0, 0, 0), rgb(255, 255, 255));&quot;&gt;Subscriber&lt;/span&gt;&lt;span style=&quot;background-color: transparent; color: light-dark(rgb(0, 0, 0), rgb(255, 255, 255));&quot;&gt;): void&lt;/span&gt;&lt;/div&gt;&lt;/div&gt;&lt;div&gt;+ emit(eventName: string, data?: T): void&lt;/div&gt;&lt;div&gt;+ onAll(callback: (event: EmitterEvent) =&amp;gt; void): void&lt;/div&gt;&lt;div&gt;+ offAll(): void&lt;/div&gt;&lt;div&gt;+ trigger(eventName: string, context?: Partial&amp;lt;T&amp;gt;): (data T) =&amp;gt; void&lt;/div&gt;" style="text;html=1;strokeColor=none;fillColor=none;align=left;verticalAlign=top;spacingLeft=4;spacingRight=4;whiteSpace=wrap;overflow=hidden;rotatable=0;points=[[0,0.5],[1,0.5]];portConstraint=eastwest;" parent="s7E4I5nIOTm-5PLSeBIP-10" vertex="1">
          <mxGeometry y="56" width="379" height="124" as="geometry" />
        </mxCell>
        <mxCell id="vHZ6u6b2gOhaOpHHtNum-1" value="&lt;b&gt;&lt;font style=&quot;font-size: 12px;&quot;&gt;Model&amp;lt;Type&amp;gt;&lt;/font&gt;&lt;/b&gt;" style="swimlane;html=1;fontStyle=0;childLayout=stackLayout;horizontal=1;startSize=30;fillColor=none;horizontalStack=0;resizeParent=1;resizeLast=0;collapsible=1;marginBottom=0;swimlaneFillColor=#ffffff;rounded=0;shadow=0;comic=0;labelBackgroundColor=none;strokeWidth=1;fontFamily=Verdana;fontSize=10;align=center;" parent="1" vertex="1">
          <mxGeometry x="690" y="140" width="280" height="100" as="geometry" />
        </mxCell>
        <mxCell id="vHZ6u6b2gOhaOpHHtNum-3" value="&lt;div&gt;+ Model(data: Partial&amp;lt;Type&amp;gt;, events?: IEvents)&lt;/div&gt;&lt;div&gt;&lt;br&gt;&lt;/div&gt;&lt;div&gt;# emitChanges?(event: string, data?: object): void&lt;/div&gt;" style="text;html=1;strokeColor=none;fillColor=none;align=left;verticalAlign=top;spacingLeft=4;spacingRight=4;whiteSpace=wrap;overflow=hidden;rotatable=0;points=[[0,0.5],[1,0.5]];portConstraint=eastwest;" parent="vHZ6u6b2gOhaOpHHtNum-1" vertex="1">
          <mxGeometry y="30" width="280" height="60" as="geometry" />
        </mxCell>
        <mxCell id="vHZ6u6b2gOhaOpHHtNum-4" value="&lt;b&gt;&lt;font style=&quot;font-size: 12px;&quot;&gt;View&amp;lt;Type&amp;gt;&lt;/font&gt;&lt;/b&gt;" style="swimlane;html=1;fontStyle=0;childLayout=stackLayout;horizontal=1;startSize=30;fillColor=none;horizontalStack=0;resizeParent=1;resizeLast=0;collapsible=1;marginBottom=0;swimlaneFillColor=#ffffff;rounded=0;shadow=0;comic=0;labelBackgroundColor=none;strokeWidth=1;fontFamily=Verdana;fontSize=10;align=center;" parent="1" vertex="1">
          <mxGeometry x="654.25" y="890" width="350.5" height="200" as="geometry" />
        </mxCell>
        <mxCell id="vHZ6u6b2gOhaOpHHtNum-6" value="&lt;div&gt;+ View(container: HTMLElement, events?: IEvents&lt;span style=&quot;background-color: transparent; color: light-dark(rgb(0, 0, 0), rgb(255, 255, 255));&quot;&gt;)&lt;/span&gt;&lt;/div&gt;&lt;div&gt;&lt;br&gt;&lt;/div&gt;&lt;div&gt;# setText(element:&amp;nbsp;&lt;span style=&quot;background-color: transparent; color: light-dark(rgb(0, 0, 0), rgb(255, 255, 255));&quot;&gt;HTMLElement&lt;/span&gt;&lt;span style=&quot;background-color: transparent; color: light-dark(rgb(0, 0, 0), rgb(255, 255, 255));&quot;&gt;, value: string):void&lt;/span&gt;&lt;/div&gt;&lt;div&gt;# setImage(element:&amp;nbsp;&lt;span style=&quot;color: light-dark(rgb(0, 0, 0), rgb(255, 255, 255)); background-color: transparent;&quot;&gt;HTMLImageElement&lt;/span&gt;&lt;span style=&quot;color: light-dark(rgb(0, 0, 0), rgb(255, 255, 255)); background-color: transparent;&quot;&gt;, src: string, alt: string): void&lt;/span&gt;&lt;span style=&quot;background-color: transparent; color: light-dark(rgb(0, 0, 0), rgb(255, 255, 255));&quot;&gt;&lt;/span&gt;&lt;/div&gt;&lt;div&gt;+ toggleClass(element: HTMLElement, className: string, force?: boolean): void&lt;span style=&quot;background-color: transparent; color: light-dark(rgb(0, 0, 0), rgb(255, 255, 255));&quot;&gt;&lt;/span&gt;&lt;/div&gt;&lt;div&gt;+ setDisabled(element:&amp;nbsp;&lt;span style=&quot;color: light-dark(rgb(0, 0, 0), rgb(255, 255, 255)); background-color: transparent;&quot;&gt;HTMLElement&lt;/span&gt;&lt;span style=&quot;color: light-dark(rgb(0, 0, 0), rgb(255, 255, 255)); background-color: transparent;&quot;&gt;, state?: boolean): void&lt;/span&gt;&lt;span style=&quot;background-color: transparent; color: light-dark(rgb(0, 0, 0), rgb(255, 255, 255));&quot;&gt;&lt;/span&gt;&lt;/div&gt;&lt;div&gt;&lt;span style=&quot;color: light-dark(rgb(0, 0, 0), rgb(255, 255, 255)); background-color: transparent;&quot;&gt;+ setHidden(&lt;/span&gt;&lt;span style=&quot;background-color: transparent; color: light-dark(rgb(0, 0, 0), rgb(255, 255, 255));&quot;&gt;element:&amp;nbsp;&lt;/span&gt;&lt;span style=&quot;background-color: transparent; color: light-dark(rgb(0, 0, 0), rgb(255, 255, 255));&quot;&gt;HTMLElement): void&lt;/span&gt;&lt;/div&gt;&lt;div&gt;&lt;span style=&quot;background-color: transparent; color: light-dark(rgb(0, 0, 0), rgb(255, 255, 255));&quot;&gt;+ setVisible(&lt;/span&gt;&lt;span style=&quot;background-color: transparent; color: light-dark(rgb(0, 0, 0), rgb(255, 255, 255));&quot;&gt;element:&amp;nbsp;&lt;/span&gt;&lt;span style=&quot;background-color: transparent; color: light-dark(rgb(0, 0, 0), rgb(255, 255, 255));&quot;&gt;HTMLElement): void&lt;/span&gt;&lt;/div&gt;&lt;div&gt;+ render(data?: T): HTMLElement&lt;/div&gt;" style="text;html=1;strokeColor=none;fillColor=none;align=left;verticalAlign=top;spacingLeft=4;spacingRight=4;whiteSpace=wrap;overflow=hidden;rotatable=0;points=[[0,0.5],[1,0.5]];portConstraint=eastwest;" parent="vHZ6u6b2gOhaOpHHtNum-4" vertex="1">
          <mxGeometry y="30" width="350.5" height="170" as="geometry" />
        </mxCell>
        <mxCell id="vHZ6u6b2gOhaOpHHtNum-9" value="&lt;b&gt;&lt;font style=&quot;font-size: 12px;&quot;&gt;ApiExtended&lt;/font&gt;&lt;/b&gt;" style="swimlane;html=1;fontStyle=0;childLayout=stackLayout;horizontal=1;startSize=30;fillColor=none;horizontalStack=0;resizeParent=1;resizeLast=0;collapsible=1;marginBottom=0;swimlaneFillColor=#ffffff;rounded=0;shadow=0;comic=0;labelBackgroundColor=none;strokeWidth=1;fontFamily=Verdana;fontSize=10;align=center;" parent="1" vertex="1">
          <mxGeometry x="260" y="60" width="360" height="140" as="geometry" />
        </mxCell>
        <mxCell id="vHZ6u6b2gOhaOpHHtNum-10" value="+ cdn: string {readOnly}" style="text;html=1;strokeColor=default;fillColor=none;align=left;verticalAlign=top;spacingLeft=4;spacingRight=4;whiteSpace=wrap;overflow=hidden;rotatable=0;points=[[0,0.5],[1,0.5]];portConstraint=eastwest;" parent="vHZ6u6b2gOhaOpHHtNum-9" vertex="1">
          <mxGeometry y="30" width="360" height="26" as="geometry" />
        </mxCell>
        <mxCell id="vHZ6u6b2gOhaOpHHtNum-11" value="&lt;div&gt;+ ApiExtended(cdn: string, baseUrl:string, options?: RequestInit)&lt;/div&gt;&lt;div&gt;&lt;br&gt;&lt;/div&gt;+ getProduct(id: string): Promise&amp;lt;IProduct&amp;gt;&lt;div&gt;+ getListOfProducts(): Promise&amp;lt;IProduct [ ]&amp;gt;&lt;/div&gt;&lt;div&gt;+ postOrder(order: IOrder): Promise&amp;lt;TOrderResult&amp;gt;&lt;/div&gt;" style="text;html=1;strokeColor=none;fillColor=none;align=left;verticalAlign=top;spacingLeft=4;spacingRight=4;whiteSpace=wrap;overflow=hidden;rotatable=0;points=[[0,0.5],[1,0.5]];portConstraint=eastwest;" parent="vHZ6u6b2gOhaOpHHtNum-9" vertex="1">
          <mxGeometry y="56" width="360" height="84" as="geometry" />
        </mxCell>
        <mxCell id="vHZ6u6b2gOhaOpHHtNum-12" value="&lt;b&gt;&lt;font style=&quot;font-size: 12px;&quot;&gt;Api&lt;/font&gt;&lt;/b&gt;" style="swimlane;html=1;fontStyle=0;childLayout=stackLayout;horizontal=1;startSize=30;fillColor=none;horizontalStack=0;resizeParent=1;resizeLast=0;collapsible=1;marginBottom=0;swimlaneFillColor=#ffffff;rounded=0;shadow=0;comic=0;labelBackgroundColor=none;strokeWidth=1;fontFamily=Verdana;fontSize=10;align=center;" parent="1" vertex="1">
          <mxGeometry x="40" y="260" width="340" height="160" as="geometry" />
        </mxCell>
        <mxCell id="vHZ6u6b2gOhaOpHHtNum-13" value="+ baseUrl: string {readOnly}&lt;br&gt;&lt;div&gt;# options: RequestUnit&lt;/div&gt;" style="text;html=1;strokeColor=default;fillColor=none;align=left;verticalAlign=top;spacingLeft=4;spacingRight=4;whiteSpace=wrap;overflow=hidden;rotatable=0;points=[[0,0.5],[1,0.5]];portConstraint=eastwest;" parent="vHZ6u6b2gOhaOpHHtNum-12" vertex="1">
          <mxGeometry y="30" width="340" height="40" as="geometry" />
        </mxCell>
        <mxCell id="vHZ6u6b2gOhaOpHHtNum-14" value="&lt;div&gt;+ Api(baseUrl:string, options: RequestInit = {})&lt;/div&gt;&lt;div&gt;&lt;br&gt;&lt;/div&gt;&lt;div&gt;# handleResponse(response: Response): Promise&amp;lt;object&amp;gt;&lt;/div&gt;&lt;div&gt;+ get(uri: string): void&lt;/div&gt;&lt;div&gt;+ post(uri: string, data: object, method: ApiPostMethods): void&lt;/div&gt;" style="text;html=1;strokeColor=none;fillColor=none;align=left;verticalAlign=top;spacingLeft=4;spacingRight=4;whiteSpace=wrap;overflow=hidden;rotatable=0;points=[[0,0.5],[1,0.5]];portConstraint=eastwest;" parent="vHZ6u6b2gOhaOpHHtNum-12" vertex="1">
          <mxGeometry y="70" width="340" height="90" as="geometry" />
        </mxCell>
        <mxCell id="vHZ6u6b2gOhaOpHHtNum-16" value="" style="endArrow=none;dashed=1;html=1;dashPattern=1 3;strokeWidth=2;rounded=0;entryX=1.002;entryY=0.572;entryDx=0;entryDy=0;entryPerimeter=0;endSize=0;startSize=0;" parent="1" edge="1">
          <mxGeometry width="50" height="50" relative="1" as="geometry">
            <mxPoint x="20" y="451" as="sourcePoint" />
            <mxPoint x="1643.2399999999998" y="451.0799999999999" as="targetPoint" />
          </mxGeometry>
        </mxCell>
        <mxCell id="vHZ6u6b2gOhaOpHHtNum-25" value="Extends" style="endArrow=block;endSize=16;endFill=0;html=1;rounded=0;" parent="1" source="vHZ6u6b2gOhaOpHHtNum-9" target="vHZ6u6b2gOhaOpHHtNum-12" edge="1">
          <mxGeometry x="0.3" width="160" relative="1" as="geometry">
            <mxPoint x="-560" y="544" as="sourcePoint" />
            <mxPoint x="-380" y="542.51" as="targetPoint" />
            <Array as="points">
              <mxPoint x="210" y="130" />
            </Array>
            <mxPoint as="offset" />
          </mxGeometry>
        </mxCell>
        <mxCell id="vHZ6u6b2gOhaOpHHtNum-27" value="" style="endArrow=none;html=1;rounded=0;" parent="1" source="vHZ6u6b2gOhaOpHHtNum-9" target="vHZ6u6b2gOhaOpHHtNum-1" edge="1">
          <mxGeometry width="50" height="50" relative="1" as="geometry">
            <mxPoint x="630" y="148.01199999999994" as="sourcePoint" />
            <mxPoint x="688.8800000000001" y="148.60000000000002" as="targetPoint" />
            <Array as="points">
              <mxPoint x="660" y="130" />
              <mxPoint x="660" y="188" />
            </Array>
          </mxGeometry>
        </mxCell>
        <mxCell id="vHZ6u6b2gOhaOpHHtNum-36" value="&lt;b&gt;&lt;font style=&quot;font-size: 12px;&quot;&gt;AppData&lt;/font&gt;&lt;/b&gt;" style="swimlane;html=1;fontStyle=0;childLayout=stackLayout;horizontal=1;startSize=30;fillColor=none;horizontalStack=0;resizeParent=1;resizeLast=0;collapsible=1;marginBottom=0;swimlaneFillColor=#ffffff;rounded=0;shadow=0;comic=0;labelBackgroundColor=none;strokeWidth=1;fontFamily=Verdana;fontSize=10;align=center;" parent="1" vertex="1">
          <mxGeometry x="1120" y="50" width="320" height="370" as="geometry" />
        </mxCell>
        <mxCell id="vHZ6u6b2gOhaOpHHtNum-37" value="&lt;div&gt;+ catalog: IProduct [ ]&lt;/div&gt;&lt;div&gt;+ basket: IProduct [ ]&lt;/div&gt;&lt;div&gt;+ preview: IProduct | null&lt;/div&gt;&lt;div&gt;+ order: IOrder&lt;/div&gt;&lt;div&gt;+ formErrors: Partial&amp;lt;Record&amp;lt;keyof IOrder&amp;gt;, string&amp;gt;&lt;/div&gt;" style="text;html=1;strokeColor=default;fillColor=none;align=left;verticalAlign=top;spacingLeft=4;spacingRight=4;whiteSpace=wrap;overflow=hidden;rotatable=0;points=[[0,0.5],[1,0.5]];portConstraint=eastwest;" parent="vHZ6u6b2gOhaOpHHtNum-36" vertex="1">
          <mxGeometry y="30" width="320" height="90" as="geometry" />
        </mxCell>
        <mxCell id="vHZ6u6b2gOhaOpHHtNum-38" value="&lt;div&gt;+ AppData()&lt;/div&gt;&lt;div&gt;&lt;br&gt;&lt;/div&gt;&lt;div&gt;+ setCatalog(items: IProduct [ ]): void&lt;/div&gt;&lt;div&gt;+ setPreview(item: IProduct): void&lt;/div&gt;&lt;div&gt;+ setProductToBasket(item: IProduct): void&lt;/div&gt;&lt;div&gt;+ setContactsField(field: keyof IOrder, value: string): void&lt;/div&gt;&lt;div&gt;+ setOrderField(field: keyof IOrder, value: string): void&lt;/div&gt;&lt;div&gt;+ setPaymentMethod(method: PaymentMethod)&lt;/div&gt;&lt;div&gt;+ setTotal(value: number): void&lt;/div&gt;&lt;div&gt;+ removeProductFromBasket(item: IProduct): void&lt;/div&gt;&lt;div&gt;+ clearBasket(): void&lt;/div&gt;&lt;div&gt;&lt;span style=&quot;background-color: transparent; color: light-dark(rgb(0, 0, 0), rgb(255, 255, 255));&quot;&gt;+ validateOrder(): void&lt;/span&gt;&lt;/div&gt;&lt;div&gt;+ validateContacts(): void&lt;/div&gt;&lt;div&gt;&lt;span style=&quot;background-color: transparent; color: light-dark(rgb(0, 0, 0), rgb(255, 255, 255));&quot;&gt;+ isInBasket(item: IProduct): boolean&lt;/span&gt;&lt;/div&gt;&lt;div&gt;+ getBasketList(): IProduct [ ]&lt;/div&gt;&lt;div&gt;+ getTotal(): number&lt;/div&gt;" style="text;html=1;strokeColor=none;fillColor=none;align=left;verticalAlign=top;spacingLeft=4;spacingRight=4;whiteSpace=wrap;overflow=hidden;rotatable=0;points=[[0,0.5],[1,0.5]];portConstraint=eastwest;" parent="vHZ6u6b2gOhaOpHHtNum-36" vertex="1">
          <mxGeometry y="120" width="320" height="250" as="geometry" />
        </mxCell>
        <mxCell id="vHZ6u6b2gOhaOpHHtNum-39" value="&lt;b&gt;&lt;font style=&quot;font-size: 12px;&quot;&gt;Page&lt;/font&gt;&lt;/b&gt;" style="swimlane;html=1;fontStyle=0;childLayout=stackLayout;horizontal=1;startSize=30;fillColor=none;horizontalStack=0;resizeParent=1;resizeLast=0;collapsible=1;marginBottom=0;swimlaneFillColor=#ffffff;rounded=0;shadow=0;comic=0;labelBackgroundColor=none;strokeWidth=1;fontFamily=Verdana;fontSize=10;align=center;" parent="1" vertex="1">
          <mxGeometry x="330" y="474" width="250" height="200" as="geometry" />
        </mxCell>
        <mxCell id="vHZ6u6b2gOhaOpHHtNum-40" value="&lt;div&gt;&lt;span style=&quot;background-color: transparent; color: light-dark(rgb(0, 0, 0), rgb(255, 255, 255));&quot;&gt;# catalog: HTMLElement&lt;/span&gt;&lt;/div&gt;&lt;div&gt;# counter: HTMLElement&lt;/div&gt;&lt;div&gt;# basket: HTMLElement&lt;/div&gt;&lt;div&gt;# wrapper: HTMLElement&lt;/div&gt;" style="text;html=1;strokeColor=default;fillColor=none;align=left;verticalAlign=top;spacingLeft=4;spacingRight=4;whiteSpace=wrap;overflow=hidden;rotatable=0;points=[[0,0.5],[1,0.5]];portConstraint=eastwest;" parent="vHZ6u6b2gOhaOpHHtNum-39" vertex="1">
          <mxGeometry y="30" width="250" height="70" as="geometry" />
        </mxCell>
        <mxCell id="vHZ6u6b2gOhaOpHHtNum-41" value="&lt;div&gt;+ Page(&lt;span style=&quot;background-color: transparent; color: light-dark(rgb(0, 0, 0), rgb(255, 255, 255));&quot;&gt;container: HTMLElement, events: IEvents&lt;/span&gt;&lt;span style=&quot;background-color: transparent; color: light-dark(rgb(0, 0, 0), rgb(255, 255, 255));&quot;&gt;)&lt;/span&gt;&lt;/div&gt;&lt;div&gt;&lt;br&gt;&lt;/div&gt;&lt;div&gt;+ set catalog(items: HTMLElement [ ])&lt;/div&gt;&lt;div&gt;+ set counter(value: number)&lt;/div&gt;&lt;div&gt;+ set locked(value: boolean)&lt;/div&gt;" style="text;html=1;strokeColor=none;fillColor=none;align=left;verticalAlign=top;spacingLeft=4;spacingRight=4;whiteSpace=wrap;overflow=hidden;rotatable=0;points=[[0,0.5],[1,0.5]];portConstraint=eastwest;" parent="vHZ6u6b2gOhaOpHHtNum-39" vertex="1">
          <mxGeometry y="100" width="250" height="100" as="geometry" />
        </mxCell>
        <mxCell id="vHZ6u6b2gOhaOpHHtNum-42" value="&lt;b&gt;&lt;font style=&quot;font-size: 12px;&quot;&gt;OrderSuccess&lt;/font&gt;&lt;/b&gt;" style="swimlane;html=1;fontStyle=0;childLayout=stackLayout;horizontal=1;startSize=30;fillColor=none;horizontalStack=0;resizeParent=1;resizeLast=0;collapsible=1;marginBottom=0;swimlaneFillColor=#ffffff;rounded=0;shadow=0;comic=0;labelBackgroundColor=none;strokeWidth=1;fontFamily=Verdana;fontSize=10;align=center;" parent="1" vertex="1">
          <mxGeometry x="350" y="780" width="200" height="140" as="geometry" />
        </mxCell>
        <mxCell id="vHZ6u6b2gOhaOpHHtNum-43" value="&lt;div&gt;- total: HTMLElement&lt;/div&gt;&lt;div&gt;- button: HTMLButtonElement&lt;/div&gt;" style="text;html=1;strokeColor=default;fillColor=none;align=left;verticalAlign=top;spacingLeft=4;spacingRight=4;whiteSpace=wrap;overflow=hidden;rotatable=0;points=[[0,0.5],[1,0.5]];portConstraint=eastwest;" parent="vHZ6u6b2gOhaOpHHtNum-42" vertex="1">
          <mxGeometry y="30" width="200" height="40" as="geometry" />
        </mxCell>
        <mxCell id="vHZ6u6b2gOhaOpHHtNum-44" value="&lt;div&gt;+ OrderSuccess(&lt;span style=&quot;background-color: transparent; color: light-dark(rgb(0, 0, 0), rgb(255, 255, 255));&quot;&gt;container: HTMLElement&lt;/span&gt;&lt;span style=&quot;background-color: transparent; color: light-dark(rgb(0, 0, 0), rgb(255, 255, 255));&quot;&gt;)&lt;/span&gt;&lt;/div&gt;&lt;div&gt;&lt;br&gt;&lt;/div&gt;&lt;div&gt;+ set total(value: number)&lt;/div&gt;" style="text;html=1;strokeColor=none;fillColor=none;align=left;verticalAlign=top;spacingLeft=4;spacingRight=4;whiteSpace=wrap;overflow=hidden;rotatable=0;points=[[0,0.5],[1,0.5]];portConstraint=eastwest;" parent="vHZ6u6b2gOhaOpHHtNum-42" vertex="1">
          <mxGeometry y="70" width="200" height="70" as="geometry" />
        </mxCell>
        <mxCell id="vHZ6u6b2gOhaOpHHtNum-45" value="&lt;b&gt;&lt;font style=&quot;font-size: 12px;&quot;&gt;Basket&lt;/font&gt;&lt;/b&gt;" style="swimlane;html=1;fontStyle=0;childLayout=stackLayout;horizontal=1;startSize=30;fillColor=none;horizontalStack=0;resizeParent=1;resizeLast=0;collapsible=1;marginBottom=0;swimlaneFillColor=#ffffff;rounded=0;shadow=0;comic=0;labelBackgroundColor=none;strokeWidth=1;fontFamily=Verdana;fontSize=10;align=center;" parent="1" vertex="1">
          <mxGeometry x="1070" y="910" width="240" height="190" as="geometry" />
        </mxCell>
        <mxCell id="vHZ6u6b2gOhaOpHHtNum-46" value="&lt;div&gt;# list: HTMLElement&lt;/div&gt;&lt;div&gt;# total: HTMLElement&lt;/div&gt;&lt;div&gt;# button: HTMLElement&lt;/div&gt;" style="text;html=1;strokeColor=default;fillColor=none;align=left;verticalAlign=top;spacingLeft=4;spacingRight=4;whiteSpace=wrap;overflow=hidden;rotatable=0;points=[[0,0.5],[1,0.5]];portConstraint=eastwest;" parent="vHZ6u6b2gOhaOpHHtNum-45" vertex="1">
          <mxGeometry y="30" width="240" height="60" as="geometry" />
        </mxCell>
        <mxCell id="vHZ6u6b2gOhaOpHHtNum-47" value="&lt;div&gt;+ Basket(container: HTMLElement, events: IEvents)&lt;/div&gt;&lt;div&gt;&lt;br&gt;&lt;/div&gt;&lt;div&gt;+ set items(items: HTMLElement [ ])&lt;/div&gt;&lt;div&gt;+ set total(total: number)&lt;/div&gt;&lt;div&gt;+ set buttonState(state: boolean)&lt;/div&gt;" style="text;html=1;strokeColor=none;fillColor=none;align=left;verticalAlign=top;spacingLeft=4;spacingRight=4;whiteSpace=wrap;overflow=hidden;rotatable=0;points=[[0,0.5],[1,0.5]];portConstraint=eastwest;" parent="vHZ6u6b2gOhaOpHHtNum-45" vertex="1">
          <mxGeometry y="90" width="240" height="100" as="geometry" />
        </mxCell>
        <mxCell id="vHZ6u6b2gOhaOpHHtNum-48" value="&lt;b&gt;&lt;font style=&quot;font-size: 12px;&quot;&gt;Modal&lt;/font&gt;&lt;/b&gt;" style="swimlane;html=1;fontStyle=0;childLayout=stackLayout;horizontal=1;startSize=30;fillColor=none;horizontalStack=0;resizeParent=1;resizeLast=0;collapsible=1;marginBottom=0;swimlaneFillColor=#ffffff;rounded=0;shadow=0;comic=0;labelBackgroundColor=none;strokeWidth=1;fontFamily=Verdana;fontSize=10;align=center;" parent="1" vertex="1">
          <mxGeometry x="40" y="474" width="240" height="190" as="geometry" />
        </mxCell>
        <mxCell id="vHZ6u6b2gOhaOpHHtNum-49" value="&lt;div&gt;&lt;span style=&quot;background-color: transparent; color: light-dark(rgb(0, 0, 0), rgb(255, 255, 255));&quot;&gt;# content: HTMLElement&lt;/span&gt;&lt;/div&gt;&lt;div&gt;&lt;span style=&quot;background-color: transparent; color: light-dark(rgb(0, 0, 0), rgb(255, 255, 255));&quot;&gt;#&lt;/span&gt;&lt;span style=&quot;background-color: transparent; color: light-dark(rgb(0, 0, 0), rgb(255, 255, 255));&quot;&gt;&amp;nbsp;&lt;/span&gt;&lt;span style=&quot;background-color: transparent; color: light-dark(rgb(0, 0, 0), rgb(255, 255, 255));&quot;&gt;closeButton: HTMLButtonElement&lt;/span&gt;&lt;/div&gt;&lt;div&gt;&lt;br&gt;&lt;/div&gt;" style="text;html=1;strokeColor=default;fillColor=none;align=left;verticalAlign=top;spacingLeft=4;spacingRight=4;whiteSpace=wrap;overflow=hidden;rotatable=0;points=[[0,0.5],[1,0.5]];portConstraint=eastwest;" parent="vHZ6u6b2gOhaOpHHtNum-48" vertex="1">
          <mxGeometry y="30" width="240" height="40" as="geometry" />
        </mxCell>
        <mxCell id="vHZ6u6b2gOhaOpHHtNum-50" value="&lt;div&gt;+ Modal(&lt;span style=&quot;background-color: transparent; color: light-dark(rgb(0, 0, 0), rgb(255, 255, 255));&quot;&gt;container: HTMLElement,&amp;nbsp;&lt;/span&gt;&lt;/div&gt;&lt;div&gt;&lt;span style=&quot;background-color: transparent; color: light-dark(rgb(0, 0, 0), rgb(255, 255, 255));&quot;&gt;events: IEvents&lt;/span&gt;&lt;span style=&quot;background-color: transparent; color: light-dark(rgb(0, 0, 0), rgb(255, 255, 255));&quot;&gt;)&lt;/span&gt;&lt;/div&gt;&lt;div&gt;&lt;br&gt;&lt;/div&gt;&lt;div&gt;+ set content(value:&amp;nbsp;&lt;span style=&quot;background-color: transparent; color: light-dark(rgb(0, 0, 0), rgb(255, 255, 255));&quot;&gt;HTMLElement&lt;/span&gt;&lt;span style=&quot;background-color: transparent; color: light-dark(rgb(0, 0, 0), rgb(255, 255, 255));&quot;&gt;)&lt;/span&gt;&lt;/div&gt;&lt;div&gt;+ open(): void&lt;/div&gt;&lt;div&gt;+ close(): void&lt;/div&gt;&lt;div&gt;+ render(data:&amp;nbsp;&lt;span style=&quot;background-color: transparent; color: light-dark(rgb(0, 0, 0), rgb(255, 255, 255));&quot;&gt;HTMLElement&lt;/span&gt;&lt;span style=&quot;background-color: transparent; color: light-dark(rgb(0, 0, 0), rgb(255, 255, 255));&quot;&gt;): void&lt;/span&gt;&lt;/div&gt;" style="text;html=1;strokeColor=none;fillColor=none;align=left;verticalAlign=top;spacingLeft=4;spacingRight=4;whiteSpace=wrap;overflow=hidden;rotatable=0;points=[[0,0.5],[1,0.5]];portConstraint=eastwest;" parent="vHZ6u6b2gOhaOpHHtNum-48" vertex="1">
          <mxGeometry y="70" width="240" height="120" as="geometry" />
        </mxCell>
        <mxCell id="vHZ6u6b2gOhaOpHHtNum-51" value="&lt;b&gt;&lt;font style=&quot;font-size: 12px;&quot;&gt;Form&amp;lt;Type&amp;gt;&lt;/font&gt;&lt;/b&gt;" style="swimlane;html=1;fontStyle=0;childLayout=stackLayout;horizontal=1;startSize=30;fillColor=none;horizontalStack=0;resizeParent=1;resizeLast=0;collapsible=1;marginBottom=0;swimlaneFillColor=#ffffff;rounded=0;shadow=0;comic=0;labelBackgroundColor=none;strokeWidth=1;fontFamily=Verdana;fontSize=10;align=center;" parent="1" vertex="1">
          <mxGeometry x="350" y="960" width="220" height="200" as="geometry" />
        </mxCell>
        <mxCell id="vHZ6u6b2gOhaOpHHtNum-52" value="&lt;div&gt;# submit: HTMLButtonElement&lt;/div&gt;&lt;div&gt;# errors: HTMLElement&lt;/div&gt;&lt;div&gt;&lt;br&gt;&lt;/div&gt;" style="text;html=1;strokeColor=default;fillColor=none;align=left;verticalAlign=top;spacingLeft=4;spacingRight=4;whiteSpace=wrap;overflow=hidden;rotatable=0;points=[[0,0.5],[1,0.5]];portConstraint=eastwest;" parent="vHZ6u6b2gOhaOpHHtNum-51" vertex="1">
          <mxGeometry y="30" width="220" height="40" as="geometry" />
        </mxCell>
        <mxCell id="vHZ6u6b2gOhaOpHHtNum-53" value="&lt;div&gt;+ Form(&lt;span style=&quot;background-color: transparent; color: light-dark(rgb(0, 0, 0), rgb(255, 255, 255));&quot;&gt;container: HTMLElement, events: IEvents&lt;/span&gt;&lt;span style=&quot;background-color: transparent; color: light-dark(rgb(0, 0, 0), rgb(255, 255, 255));&quot;&gt;)&lt;/span&gt;&lt;/div&gt;&lt;div&gt;&lt;br&gt;&lt;/div&gt;&lt;div&gt;- isInputChanged(field: &amp;lt;keyof Type&amp;gt;): void&lt;/div&gt;&lt;div&gt;+ set submitState(value: boolean)&lt;/div&gt;&lt;div&gt;+ set errors(value: string)&lt;/div&gt;&lt;div&gt;+ render(): void&lt;/div&gt;" style="text;html=1;strokeColor=none;fillColor=none;align=left;verticalAlign=top;spacingLeft=4;spacingRight=4;whiteSpace=wrap;overflow=hidden;rotatable=0;points=[[0,0.5],[1,0.5]];portConstraint=eastwest;" parent="vHZ6u6b2gOhaOpHHtNum-51" vertex="1">
          <mxGeometry y="70" width="220" height="120" as="geometry" />
        </mxCell>
        <mxCell id="vHZ6u6b2gOhaOpHHtNum-54" value="&lt;b&gt;&lt;font style=&quot;font-size: 12px;&quot;&gt;OrderForm&lt;/font&gt;&lt;/b&gt;" style="swimlane;html=1;fontStyle=0;childLayout=stackLayout;horizontal=1;startSize=30;fillColor=none;horizontalStack=0;resizeParent=1;resizeLast=0;collapsible=1;marginBottom=0;swimlaneFillColor=#ffffff;rounded=0;shadow=0;comic=0;labelBackgroundColor=none;strokeWidth=1;fontFamily=Verdana;fontSize=10;align=center;" parent="1" vertex="1">
          <mxGeometry x="40" y="970" width="220" height="180" as="geometry" />
        </mxCell>
        <mxCell id="vHZ6u6b2gOhaOpHHtNum-55" value="&lt;div&gt;# paymentCard: HTMLButtonElement&lt;/div&gt;&lt;div&gt;# paymentCash: HTMLButtonElement&lt;/div&gt;&lt;div&gt;- address: HTMLInputElement&lt;/div&gt;" style="text;html=1;strokeColor=default;fillColor=none;align=left;verticalAlign=top;spacingLeft=4;spacingRight=4;whiteSpace=wrap;overflow=hidden;rotatable=0;points=[[0,0.5],[1,0.5]];portConstraint=eastwest;" parent="vHZ6u6b2gOhaOpHHtNum-54" vertex="1">
          <mxGeometry y="30" width="220" height="60" as="geometry" />
        </mxCell>
        <mxCell id="vHZ6u6b2gOhaOpHHtNum-56" value="&lt;div&gt;+ OrderForm(&lt;span style=&quot;background-color: transparent; color: light-dark(rgb(0, 0, 0), rgb(255, 255, 255));&quot;&gt;container: HTMLElement, events: IEvents&lt;/span&gt;&lt;span style=&quot;background-color: transparent; color: light-dark(rgb(0, 0, 0), rgb(255, 255, 255));&quot;&gt;)&lt;/span&gt;&lt;/div&gt;&lt;div&gt;&lt;br&gt;&lt;/div&gt;&lt;div&gt;+ set payment(value: PaymentMethod)&lt;/div&gt;&lt;div&gt;+ set address(value: string)&lt;/div&gt;" style="text;html=1;strokeColor=none;fillColor=none;align=left;verticalAlign=top;spacingLeft=4;spacingRight=4;whiteSpace=wrap;overflow=hidden;rotatable=0;points=[[0,0.5],[1,0.5]];portConstraint=eastwest;" parent="vHZ6u6b2gOhaOpHHtNum-54" vertex="1">
          <mxGeometry y="90" width="220" height="90" as="geometry" />
        </mxCell>
        <mxCell id="vHZ6u6b2gOhaOpHHtNum-57" value="&lt;b&gt;&lt;font style=&quot;font-size: 12px;&quot;&gt;ContactsForm&lt;/font&gt;&lt;/b&gt;" style="swimlane;html=1;fontStyle=0;childLayout=stackLayout;horizontal=1;startSize=30;fillColor=none;horizontalStack=0;resizeParent=1;resizeLast=0;collapsible=1;marginBottom=0;swimlaneFillColor=#ffffff;rounded=0;shadow=0;comic=0;labelBackgroundColor=none;strokeWidth=1;fontFamily=Verdana;fontSize=10;align=center;" parent="1" vertex="1">
          <mxGeometry x="40" y="780" width="220" height="160" as="geometry" />
        </mxCell>
        <mxCell id="vHZ6u6b2gOhaOpHHtNum-58" value="&lt;div&gt;- email: HTMLInputElement&lt;/div&gt;&lt;div&gt;- phone: HTMLInputElement&lt;/div&gt;" style="text;html=1;strokeColor=default;fillColor=none;align=left;verticalAlign=top;spacingLeft=4;spacingRight=4;whiteSpace=wrap;overflow=hidden;rotatable=0;points=[[0,0.5],[1,0.5]];portConstraint=eastwest;" parent="vHZ6u6b2gOhaOpHHtNum-57" vertex="1">
          <mxGeometry y="30" width="220" height="40" as="geometry" />
        </mxCell>
        <mxCell id="vHZ6u6b2gOhaOpHHtNum-59" value="&lt;div&gt;+ ContactsForm(&lt;span style=&quot;background-color: transparent; color: light-dark(rgb(0, 0, 0), rgb(255, 255, 255));&quot;&gt;container: HTMLElement, events: IEvents&lt;/span&gt;&lt;span style=&quot;background-color: transparent; color: light-dark(rgb(0, 0, 0), rgb(255, 255, 255));&quot;&gt;)&lt;/span&gt;&lt;/div&gt;&lt;div&gt;&lt;br&gt;&lt;/div&gt;&lt;div&gt;+ set email(value: string)&lt;/div&gt;&lt;div&gt;+ set phone(value: string)&lt;/div&gt;" style="text;html=1;strokeColor=none;fillColor=none;align=left;verticalAlign=top;spacingLeft=4;spacingRight=4;whiteSpace=wrap;overflow=hidden;rotatable=0;points=[[0,0.5],[1,0.5]];portConstraint=eastwest;" parent="vHZ6u6b2gOhaOpHHtNum-57" vertex="1">
          <mxGeometry y="70" width="220" height="90" as="geometry" />
        </mxCell>
        <mxCell id="vHZ6u6b2gOhaOpHHtNum-61" value="&lt;b&gt;&lt;font style=&quot;font-size: 12px;&quot;&gt;Card&lt;/font&gt;&lt;/b&gt;" style="swimlane;html=1;fontStyle=0;childLayout=stackLayout;horizontal=1;startSize=30;fillColor=none;horizontalStack=0;resizeParent=1;resizeLast=0;collapsible=1;marginBottom=0;swimlaneFillColor=#ffffff;rounded=0;shadow=0;comic=0;labelBackgroundColor=none;strokeWidth=1;fontFamily=Verdana;fontSize=10;align=center;" parent="1" vertex="1">
          <mxGeometry x="1390" y="740" width="210" height="200" as="geometry" />
        </mxCell>
        <mxCell id="vHZ6u6b2gOhaOpHHtNum-62" value="&lt;div&gt;# title: HTMLElement&lt;/div&gt;&lt;div&gt;&lt;span style=&quot;background-color: transparent; color: light-dark(rgb(0, 0, 0), rgb(255, 255, 255));&quot;&gt;# category?: HTMLElement&lt;/span&gt;&lt;/div&gt;&lt;div&gt;# image: HTMLElement&lt;/div&gt;&lt;div&gt;# price: HTMLElement&lt;/div&gt;" style="text;html=1;strokeColor=default;fillColor=none;align=left;verticalAlign=top;spacingLeft=4;spacingRight=4;whiteSpace=wrap;overflow=hidden;rotatable=0;points=[[0,0.5],[1,0.5]];portConstraint=eastwest;" parent="vHZ6u6b2gOhaOpHHtNum-61" vertex="1">
          <mxGeometry y="30" width="210" height="70" as="geometry" />
        </mxCell>
        <mxCell id="vHZ6u6b2gOhaOpHHtNum-63" value="&lt;div&gt;+ Card(&lt;span style=&quot;background-color: transparent; color: light-dark(rgb(0, 0, 0), rgb(255, 255, 255));&quot;&gt;container: HTMLElement&lt;/span&gt;&lt;span style=&quot;background-color: transparent; color: light-dark(rgb(0, 0, 0), rgb(255, 255, 255));&quot;&gt;)&lt;/span&gt;&lt;/div&gt;&lt;div&gt;&lt;br&gt;&lt;/div&gt;&lt;div&gt;+ set title(value: string)&lt;/div&gt;&lt;div&gt;+ set category(value: string)&lt;/div&gt;&lt;div&gt;+ set image(value: string)&lt;/div&gt;&lt;div&gt;+ set price(value: number)&lt;/div&gt;" style="text;html=1;strokeColor=none;fillColor=none;align=left;verticalAlign=top;spacingLeft=4;spacingRight=4;whiteSpace=wrap;overflow=hidden;rotatable=0;points=[[0,0.5],[1,0.5]];portConstraint=eastwest;" parent="vHZ6u6b2gOhaOpHHtNum-61" vertex="1">
          <mxGeometry y="100" width="210" height="100" as="geometry" />
        </mxCell>
        <mxCell id="vHZ6u6b2gOhaOpHHtNum-64" value="&lt;b&gt;&lt;font style=&quot;font-size: 12px;&quot;&gt;CardPreview&lt;/font&gt;&lt;/b&gt;" style="swimlane;html=1;fontStyle=0;childLayout=stackLayout;horizontal=1;startSize=30;fillColor=none;horizontalStack=0;resizeParent=1;resizeLast=0;collapsible=1;marginBottom=0;swimlaneFillColor=#ffffff;rounded=0;shadow=0;comic=0;labelBackgroundColor=none;strokeWidth=1;fontFamily=Verdana;fontSize=10;align=center;" parent="1" vertex="1">
          <mxGeometry x="1390" y="474" width="210" height="170" as="geometry" />
        </mxCell>
        <mxCell id="vHZ6u6b2gOhaOpHHtNum-65" value="&lt;div&gt;# description: HTMLElement&lt;/div&gt;&lt;div&gt;# button: HTMLButtonElement&lt;/div&gt;" style="text;html=1;strokeColor=default;fillColor=none;align=left;verticalAlign=top;spacingLeft=4;spacingRight=4;whiteSpace=wrap;overflow=hidden;rotatable=0;points=[[0,0.5],[1,0.5]];portConstraint=eastwest;" parent="vHZ6u6b2gOhaOpHHtNum-64" vertex="1">
          <mxGeometry y="30" width="210" height="40" as="geometry" />
        </mxCell>
        <mxCell id="vHZ6u6b2gOhaOpHHtNum-66" value="&lt;div&gt;+ CardPreview(&lt;span style=&quot;background-color: transparent; color: light-dark(rgb(0, 0, 0), rgb(255, 255, 255));&quot;&gt;container: HTMLElement&lt;/span&gt;&lt;span style=&quot;background-color: transparent; color: light-dark(rgb(0, 0, 0), rgb(255, 255, 255));&quot;&gt;)&lt;/span&gt;&lt;/div&gt;&lt;div&gt;&lt;br&gt;&lt;/div&gt;&lt;div&gt;+ set description(value: string)&lt;/div&gt;&lt;div&gt;+ isNotForSale(item: IProduct): boolean&lt;/div&gt;" style="text;html=1;strokeColor=none;fillColor=none;align=left;verticalAlign=top;spacingLeft=4;spacingRight=4;whiteSpace=wrap;overflow=hidden;rotatable=0;points=[[0,0.5],[1,0.5]];portConstraint=eastwest;" parent="vHZ6u6b2gOhaOpHHtNum-64" vertex="1">
          <mxGeometry y="70" width="210" height="100" as="geometry" />
        </mxCell>
        <mxCell id="vHZ6u6b2gOhaOpHHtNum-67" value="&lt;b&gt;&lt;font style=&quot;font-size: 12px;&quot;&gt;BasketItem&lt;/font&gt;&lt;/b&gt;" style="swimlane;html=1;fontStyle=0;childLayout=stackLayout;horizontal=1;startSize=30;fillColor=none;horizontalStack=0;resizeParent=1;resizeLast=0;collapsible=1;marginBottom=0;swimlaneFillColor=#ffffff;rounded=0;shadow=0;comic=0;labelBackgroundColor=none;strokeWidth=1;fontFamily=Verdana;fontSize=10;align=center;" parent="1" vertex="1">
          <mxGeometry x="1100" y="474" width="210" height="200" as="geometry" />
        </mxCell>
        <mxCell id="vHZ6u6b2gOhaOpHHtNum-68" value="&lt;div&gt;# index: HTMLElement&lt;/div&gt;&lt;div&gt;# title: HTMLElement&lt;/div&gt;&lt;div&gt;# price: HTMLElement&lt;/div&gt;&lt;div&gt;# deleteButton: HTMLElement&lt;/div&gt;" style="text;html=1;strokeColor=default;fillColor=none;align=left;verticalAlign=top;spacingLeft=4;spacingRight=4;whiteSpace=wrap;overflow=hidden;rotatable=0;points=[[0,0.5],[1,0.5]];portConstraint=eastwest;" parent="vHZ6u6b2gOhaOpHHtNum-67" vertex="1">
          <mxGeometry y="30" width="210" height="70" as="geometry" />
        </mxCell>
        <mxCell id="vHZ6u6b2gOhaOpHHtNum-69" value="&lt;div&gt;+ BasketItem(&lt;span style=&quot;background-color: transparent; color: light-dark(rgb(0, 0, 0), rgb(255, 255, 255));&quot;&gt;container: HTMLElement&lt;/span&gt;&lt;span style=&quot;background-color: transparent; color: light-dark(rgb(0, 0, 0), rgb(255, 255, 255));&quot;&gt;)&lt;/span&gt;&lt;/div&gt;&lt;div&gt;&lt;br&gt;&lt;/div&gt;&lt;div&gt;+ set index(value: number)&lt;/div&gt;&lt;div&gt;+ set title(value: string)&lt;/div&gt;&lt;div&gt;+ set price(value: number)&lt;/div&gt;" style="text;html=1;strokeColor=none;fillColor=none;align=left;verticalAlign=top;spacingLeft=4;spacingRight=4;whiteSpace=wrap;overflow=hidden;rotatable=0;points=[[0,0.5],[1,0.5]];portConstraint=eastwest;" parent="vHZ6u6b2gOhaOpHHtNum-67" vertex="1">
          <mxGeometry y="100" width="210" height="100" as="geometry" />
        </mxCell>
        <mxCell id="vHZ6u6b2gOhaOpHHtNum-70" value="" style="endArrow=none;dashed=1;html=1;dashPattern=1 3;strokeWidth=2;rounded=0;entryX=0.377;entryY=0.353;entryDx=0;entryDy=0;entryPerimeter=0;" parent="1" edge="1">
          <mxGeometry width="50" height="50" relative="1" as="geometry">
            <mxPoint x="612" y="701" as="sourcePoint" />
            <mxPoint x="612.7399999999998" y="451.4200000000001" as="targetPoint" />
          </mxGeometry>
        </mxCell>
        <mxCell id="vHZ6u6b2gOhaOpHHtNum-72" value="" style="endArrow=none;dashed=1;html=1;dashPattern=1 3;strokeWidth=2;rounded=0;" parent="1" edge="1">
          <mxGeometry width="50" height="50" relative="1" as="geometry">
            <mxPoint x="1040" y="700" as="sourcePoint" />
            <mxPoint x="613" y="700" as="targetPoint" />
          </mxGeometry>
        </mxCell>
        <mxCell id="vHZ6u6b2gOhaOpHHtNum-74" value="" style="endArrow=none;dashed=1;html=1;dashPattern=1 3;strokeWidth=2;rounded=0;" parent="1" edge="1">
          <mxGeometry width="50" height="50" relative="1" as="geometry">
            <mxPoint x="1043" y="701" as="sourcePoint" />
            <mxPoint x="1043" y="451" as="targetPoint" />
          </mxGeometry>
        </mxCell>
        <mxCell id="vHZ6u6b2gOhaOpHHtNum-76" value="" style="endArrow=classic;startArrow=classic;html=1;rounded=0;" parent="1" source="s7E4I5nIOTm-5PLSeBIP-10" target="vHZ6u6b2gOhaOpHHtNum-1" edge="1">
          <mxGeometry width="50" height="50" relative="1" as="geometry">
            <mxPoint x="860" y="430" as="sourcePoint" />
            <mxPoint x="910" y="380" as="targetPoint" />
          </mxGeometry>
        </mxCell>
        <mxCell id="vHZ6u6b2gOhaOpHHtNum-77" value="" style="endArrow=classic;startArrow=classic;html=1;rounded=0;" parent="1" source="s7E4I5nIOTm-5PLSeBIP-10" target="vHZ6u6b2gOhaOpHHtNum-4" edge="1">
          <mxGeometry width="50" height="50" relative="1" as="geometry">
            <mxPoint x="860" y="430" as="sourcePoint" />
            <mxPoint x="910" y="380" as="targetPoint" />
          </mxGeometry>
        </mxCell>
        <mxCell id="vHZ6u6b2gOhaOpHHtNum-78" value="Extends" style="endArrow=block;endSize=16;endFill=0;html=1;rounded=0;" parent="1" source="vHZ6u6b2gOhaOpHHtNum-36" target="vHZ6u6b2gOhaOpHHtNum-1" edge="1">
          <mxGeometry x="0.0698" width="160" relative="1" as="geometry">
            <mxPoint x="800" y="300" as="sourcePoint" />
            <mxPoint x="960" y="300" as="targetPoint" />
            <Array as="points">
              <mxPoint x="1040" y="240" />
              <mxPoint x="1040" y="190" />
            </Array>
            <mxPoint as="offset" />
          </mxGeometry>
        </mxCell>
        <mxCell id="vHZ6u6b2gOhaOpHHtNum-81" value="Extends" style="endArrow=block;endSize=16;endFill=0;html=1;rounded=0;" parent="1" source="vHZ6u6b2gOhaOpHHtNum-45" target="vHZ6u6b2gOhaOpHHtNum-4" edge="1">
          <mxGeometry x="0.0435" width="160" relative="1" as="geometry">
            <mxPoint x="800" y="700" as="sourcePoint" />
            <mxPoint x="960" y="700" as="targetPoint" />
            <Array as="points">
              <mxPoint x="1190" y="1150" />
              <mxPoint x="830" y="1150" />
            </Array>
            <mxPoint as="offset" />
          </mxGeometry>
        </mxCell>
        <mxCell id="vHZ6u6b2gOhaOpHHtNum-82" value="Extends" style="endArrow=block;endSize=16;endFill=0;html=1;rounded=0;entryX=0.75;entryY=0;entryDx=0;entryDy=0;" parent="1" source="vHZ6u6b2gOhaOpHHtNum-69" target="vHZ6u6b2gOhaOpHHtNum-4" edge="1">
          <mxGeometry x="-0.0433" width="160" relative="1" as="geometry">
            <mxPoint x="1690" y="840" as="sourcePoint" />
            <mxPoint x="1510" y="795" as="targetPoint" />
            <Array as="points">
              <mxPoint x="1206" y="770" />
              <mxPoint x="917" y="770" />
            </Array>
            <mxPoint as="offset" />
          </mxGeometry>
        </mxCell>
        <mxCell id="vHZ6u6b2gOhaOpHHtNum-83" value="Extends" style="endArrow=block;endSize=16;endFill=0;html=1;rounded=0;exitX=0.5;exitY=1;exitDx=0;exitDy=0;entryX=0.5;entryY=0;entryDx=0;entryDy=0;" parent="1" source="vHZ6u6b2gOhaOpHHtNum-64" target="vHZ6u6b2gOhaOpHHtNum-61" edge="1">
          <mxGeometry x="-0.2889" width="160" relative="1" as="geometry">
            <mxPoint x="1720" y="760" as="sourcePoint" />
            <mxPoint x="1540" y="715" as="targetPoint" />
            <Array as="points" />
            <mxPoint as="offset" />
          </mxGeometry>
        </mxCell>
        <mxCell id="vHZ6u6b2gOhaOpHHtNum-84" value="Extends" style="endArrow=block;endSize=16;endFill=0;html=1;rounded=0;entryX=0.921;entryY=0.004;entryDx=0;entryDy=0;entryPerimeter=0;" parent="1" source="vHZ6u6b2gOhaOpHHtNum-61" target="vHZ6u6b2gOhaOpHHtNum-4" edge="1">
          <mxGeometry x="-0.0977" width="160" relative="1" as="geometry">
            <mxPoint x="1660" y="920" as="sourcePoint" />
            <mxPoint x="1480" y="875" as="targetPoint" />
            <Array as="points">
              <mxPoint x="977" y="840" />
            </Array>
            <mxPoint as="offset" />
          </mxGeometry>
        </mxCell>
        <mxCell id="vHZ6u6b2gOhaOpHHtNum-85" value="Extends" style="endArrow=block;endSize=16;endFill=0;html=1;rounded=0;entryX=-0.009;entryY=0.858;entryDx=0;entryDy=0;entryPerimeter=0;" parent="1" source="vHZ6u6b2gOhaOpHHtNum-54" target="vHZ6u6b2gOhaOpHHtNum-53" edge="1">
          <mxGeometry x="-0.0345" width="160" relative="1" as="geometry">
            <mxPoint x="-70" y="960" as="sourcePoint" />
            <mxPoint x="-250" y="915" as="targetPoint" />
            <Array as="points">
              <mxPoint x="300" y="1060" />
              <mxPoint x="300" y="1133" />
            </Array>
            <mxPoint as="offset" />
          </mxGeometry>
        </mxCell>
        <mxCell id="vHZ6u6b2gOhaOpHHtNum-86" value="Extends" style="endArrow=block;endSize=16;endFill=0;html=1;rounded=0;entryX=0;entryY=0.214;entryDx=0;entryDy=0;entryPerimeter=0;" parent="1" source="vHZ6u6b2gOhaOpHHtNum-57" target="vHZ6u6b2gOhaOpHHtNum-52" edge="1">
          <mxGeometry x="-0.0455" width="160" relative="1" as="geometry">
            <mxPoint x="-50" y="910" as="sourcePoint" />
            <mxPoint x="-230" y="865" as="targetPoint" />
            <Array as="points">
              <mxPoint x="300" y="860" />
              <mxPoint x="300" y="999" />
            </Array>
            <mxPoint as="offset" />
          </mxGeometry>
        </mxCell>
        <mxCell id="vHZ6u6b2gOhaOpHHtNum-87" value="Extends" style="endArrow=block;endSize=16;endFill=0;html=1;rounded=0;" parent="1" source="vHZ6u6b2gOhaOpHHtNum-51" target="vHZ6u6b2gOhaOpHHtNum-4" edge="1">
          <mxGeometry x="-0.1682" width="160" relative="1" as="geometry">
            <mxPoint x="-60" y="830" as="sourcePoint" />
            <mxPoint x="-240" y="785" as="targetPoint" />
            <Array as="points">
              <mxPoint x="600" y="1060" />
              <mxPoint x="600" y="990" />
            </Array>
            <mxPoint as="offset" />
          </mxGeometry>
        </mxCell>
        <mxCell id="vHZ6u6b2gOhaOpHHtNum-88" value="Extends" style="endArrow=block;endSize=16;endFill=0;html=1;rounded=0;entryX=0;entryY=0.5;entryDx=0;entryDy=0;" parent="1" source="vHZ6u6b2gOhaOpHHtNum-42" edge="1">
          <mxGeometry x="-0.0734" width="160" relative="1" as="geometry">
            <mxPoint x="-100" y="750" as="sourcePoint" />
            <mxPoint x="654.25" y="940" as="targetPoint" />
            <Array as="points">
              <mxPoint x="600" y="850" />
              <mxPoint x="600" y="940" />
            </Array>
            <mxPoint as="offset" />
          </mxGeometry>
        </mxCell>
        <mxCell id="vHZ6u6b2gOhaOpHHtNum-89" value="Extends" style="endArrow=block;endSize=16;endFill=0;html=1;rounded=0;entryX=0.082;entryY=-0.004;entryDx=0;entryDy=0;entryPerimeter=0;" parent="1" source="vHZ6u6b2gOhaOpHHtNum-48" target="vHZ6u6b2gOhaOpHHtNum-4" edge="1">
          <mxGeometry x="-0.2889" width="160" relative="1" as="geometry">
            <mxPoint x="-100" y="690" as="sourcePoint" />
            <mxPoint x="-280" y="645" as="targetPoint" />
            <Array as="points">
              <mxPoint x="160" y="750" />
              <mxPoint x="683" y="750" />
            </Array>
            <mxPoint as="offset" />
          </mxGeometry>
        </mxCell>
        <mxCell id="vHZ6u6b2gOhaOpHHtNum-90" value="Extends" style="endArrow=block;endSize=16;endFill=0;html=1;rounded=0;entryX=0.25;entryY=0;entryDx=0;entryDy=0;" parent="1" source="vHZ6u6b2gOhaOpHHtNum-39" target="vHZ6u6b2gOhaOpHHtNum-4" edge="1">
          <mxGeometry x="-0.2889" width="160" relative="1" as="geometry">
            <mxPoint x="-180" y="560" as="sourcePoint" />
            <mxPoint x="-360" y="515" as="targetPoint" />
            <Array as="points">
              <mxPoint x="455" y="720" />
              <mxPoint x="742" y="720" />
            </Array>
            <mxPoint as="offset" />
          </mxGeometry>
        </mxCell>
      </root>
    </mxGraphModel>
  </diagram>
</mxfile>
